<svg width="1200" height="512" viewBox="0 0 1200 512" fill="none" xmlns="http://www.w3.org/2000/svg">
  <!-- Icon -->
  <g id="icon">
    <!-- Paper base -->
    <path d="M64 96C64 78.3269 78.3269 64 96 64H288C305.673 64 320 78.3269 320 96V416C320 433.673 305.673 448 288 448H96C78.3269 448 64 433.673 64 416V96Z" stroke="#3B82F6" stroke-width="12" stroke-linejoin="round"/>

    <!-- Folded corner -->
    <path d="M288 64V96C288 104.837 295.163 112 304 112H320" stroke="#3B82F6" stroke-width="12" stroke-linejoin="round"/>
    <path d="M288 64L320 96" stroke="#3B82F6" stroke-width="12" stroke-linejoin="round"/>

    <!-- Circuit traces - horizontal lines -->
    <line x1="112" y1="160" x2="216" y2="160" stroke="#1E40AF" stroke-width="4" stroke-linecap="round"/>
    <line x1="112" y1="224" x2="272" y2="224" stroke="#1E40AF" stroke-width="4" stroke-linecap="round"/>
    <line x1="160" y1="288" x2="272" y2="288" stroke="#1E40AF" stroke-width="4" stroke-linecap="round"/>
    <line x1="112" y1="352" x2="216" y2="352" stroke="#1E40AF" stroke-width="4" stroke-linecap="round"/>

    <!-- Circuit traces - vertical connectors -->
    <line x1="160" y1="160" x2="160" y2="288" stroke="#1E40AF" stroke-width="4" stroke-linecap="round"/>
    <line x1="216" y1="160" x2="216" y2="352" stroke="#1E40AF" stroke-width="4" stroke-linecap="round"/>

    <!-- Circuit nodes -->
    <circle cx="160" cy="160" r="6" fill="#1E40AF"/>
    <circle cx="216" cy="160" r="6" fill="#1E40AF"/>
    <circle cx="160" cy="224" r="6" fill="#1E40AF"/>
    <circle cx="216" cy="224" r="6" fill="#1E40AF"/>
    <circle cx="160" cy="288" r="6" fill="#1E40AF"/>
    <circle cx="216" cy="288" r="6" fill="#1E40AF"/>
    <circle cx="216" cy="352" r="6" fill="#1E40AF"/>
  </g>

  <!-- Wordmark -->
  <text x="420" y="290" font-family="system-ui, -apple-system, sans-serif" font-size="120" font-weight="600" fill="#1F2937" letter-spacing="-0.02em">ExpandNote</text>
</svg>
